<svg xmlns="http://www.w3.org/2000/svg" xmlns:xlink="http://www.w3.org/1999/xlink" width="38" height="38" viewBox="0 0 38 38">
  <defs>
    <linearGradient id="linear-gradient" x1="0.273" y1="-0.408" x2="1" y2="0.884" gradientUnits="objectBoundingBox">
      <stop offset="0" stop-color="#fff"/>
      <stop offset="1" stop-color="#00e27a"/>
    </linearGradient>
    <clipPath id="clip-path">
      <rect id="Rectangle_3" data-name="Rectangle 3" width="10.395" height="38" fill="url(#linear-gradient)"/>
    </clipPath>
    <clipPath id="clip-Free_info">
      <rect width="38" height="38"/>
    </clipPath>
  </defs>
  <g id="Free_info" data-name="Free info" clip-path="url(#clip-Free_info)">
    <rect width="38" height="38" fill="rgba(255,255,255,0)"/>
    <g id="Group_5" data-name="Group 5" transform="translate(14)" style="isolation: isolate">
      <g id="Group_4" data-name="Group 4" clip-path="url(#clip-path)">
        <path id="Path_3602" data-name="Path 3602" d="M2.626,101.1l.244-.055.007-.032a1.135,1.135,0,0,0-.182-.034,2.738,2.738,0,0,1-2.6-2.348,7.247,7.247,0,0,1,.1-2.789q.8-3.755,1.587-7.511.787-3.713,1.579-7.426a3.353,3.353,0,0,0,.06-.4,1.078,1.078,0,0,0-.776-1.248,15.647,15.647,0,0,0-1.56-.352c-.267-.056-.537-.1-.842-.157.031-.127.066-.258.1-.391.07-.323.144-.645.2-.97a.225.225,0,0,1,.233-.214c.922-.108,1.843-.225,2.764-.34l5.4-.676c.374-.047.748-.1,1.16-.153-.072.358-.137.694-.208,1.028q-.9,4.248-1.81,8.5-.908,4.269-1.811,8.539-.231,1.093-.442,2.19a1.67,1.67,0,0,0,.193,1.083,1.1,1.1,0,0,0,1.031.582,4.36,4.36,0,0,0,2.881-.9c.026-.02.056-.036.116-.075-.088.415-.2.791-.243,1.175a1.437,1.437,0,0,1-.6.971,8.791,8.791,0,0,1-4.217,1.854c-.2.034-.418,0-.635.042l.262.1H2.626" transform="translate(0 -63.104)" fill="url(#linear-gradient)"/>
        <path id="Path_3603" data-name="Path 3603" d="M20.642,4.045a4.148,4.148,0,1,1-8.295.13,4.148,4.148,0,0,1,8.295-.13" transform="translate(-10.25 0.001)" fill="url(#linear-gradient)"/>
      </g>
    </g>
  </g>
</svg>
