<svg xmlns="http://www.w3.org/2000/svg" xmlns:xlink="http://www.w3.org/1999/xlink" width="38" height="38" viewBox="0 0 38 38">
  <defs>
    <linearGradient id="linear-gradient" x1="0.096" x2="1.023" y2="1.198" gradientUnits="objectBoundingBox">
      <stop offset="0" stop-color="#00e27a"/>
      <stop offset="1" stop-color="#fff"/>
    </linearGradient>
    <clipPath id="clip-path">
      <rect id="Rectangle_9" data-name="Rectangle 9" width="38" height="26.963" fill="url(#linear-gradient)"/>
    </clipPath>
    <clipPath id="clip-Internet_businesss">
      <rect width="38" height="38"/>
    </clipPath>
  </defs>
  <g id="Internet_businesss" data-name="Internet businesss" clip-path="url(#clip-Internet_businesss)">
    <rect width="38" height="38" fill="rgba(255,255,255,0)"/>
    <g id="Group_17" data-name="Group 17" transform="translate(0 6)">
      <g id="Group_16" data-name="Group 16" clip-path="url(#clip-path)">
        <path id="Path_3619" data-name="Path 3619" d="M18.874,22.853q-6.6,0-13.193,0a2.808,2.808,0,0,1-3.035-3.094c.01-5.5,0-11,.01-16.5a4.662,4.662,0,0,1,.181-1.444A2.694,2.694,0,0,1,5.486.005q5.579-.012,11.158,0Q24.371,0,32.1,0A2.766,2.766,0,0,1,35.05,2.947q0,8.5,0,16.992a2.738,2.738,0,0,1-2.907,2.9q-6.634.008-13.268,0v.009M33.041,2.193H4.668V20.649H33.041ZM.04,23.779H37.952a2.725,2.725,0,0,1-2.7,3.178c-2.864.012-5.728.006-8.592.006q-11.719,0-23.438,0a5.354,5.354,0,0,1-1.084-.084,2.722,2.722,0,0,1-2.093-3.1M19,25.843v0c.565,0,1.13-.008,1.7,0,.356.007.41-.207.412-.489s-.055-.474-.387-.472c-1.143.005-2.286.01-3.429.006-.364,0-.392.227-.395.5s.082.458.406.452c.565-.01,1.13,0,1.7,0m-3.207-11.11A4.973,4.973,0,0,0,14.1,7.7,4.914,4.914,0,0,0,7.816,8.777c.011.022.017.051.035.064.634.451,1.276.89,1.9,1.354a.5.5,0,0,0,.685.033,2.165,2.165,0,0,1,2.555.185,2.134,2.134,0,0,1,.523,2.508,2.1,2.1,0,0,1-2.018,1.26c-.163.006-.4.026-.472.13-.531.725-1.029,1.473-1.54,2.219a4.932,4.932,0,0,0,6.31-1.8M9.526,11.864c.189-.705-.142-.961-.621-1.246-.247-.147-.472-.331-.708-.5l-.945-.664a4.936,4.936,0,0,0,1.48,6.7l1.63-2.407a1.849,1.849,0,0,1-.836-1.881m16.966,5.05c.443,0,.868-.019,1.29.006.321.019.4-.1.4-.409-.011-2.36,0-4.721-.005-7.081,0-.147-.014-.293-.023-.457H26.493ZM22.665,9.754H21.01v7.132h1.655Zm2.712,1.211H23.709v5.906h1.668Zm5.492.379h-1.66v5.541h1.66ZM27.811,6.168c.071.1.2.2.2.291a1.241,1.241,0,0,0,.428.848c.279.339.561.676.839,1.017.251.307.454.672.909.724a.185.185,0,0,1,.091.064,1.389,1.389,0,0,1,.1.157c-.359-.177-.7-.329-.876.093a.581.581,0,0,0,.14.52c.258.223.512.079.726-.138a.455.455,0,0,1-.545.323c-.272-.025-.481-.175-.462-.448a1.023,1.023,0,0,0-.334-.762c-.41-.492-.814-.988-1.224-1.48-.282-.338-.443-.36-.792-.077q-.862.7-1.7,1.427c-.1.09-.137.258-.229.368-.142.17-.281.391-.469.457-.129.045-.346-.121-.508-.219a4.254,4.254,0,0,0-.538-.374c-.652-.26-1.315-.492-1.979-.723a.791.791,0,0,0-.935.267c-.47.572-.947,1.139-1.4,1.723a.972.972,0,0,0-.174.475.555.555,0,0,1-.519.549.6.6,0,0,1-.571-.506.562.562,0,0,1,.429-.622,1.168,1.168,0,0,0,.448-.3c.537-.63,1.054-1.277,1.56-1.895a3.148,3.148,0,0,0,.616.2c.088.01.225-.116.286-.214.176-.284.01-.538-.47-.751l.051-.088c.171.11.347.214.513.331a2.592,2.592,0,0,0,.455.343c.629.252,1.266.482,1.906.7a1.26,1.26,0,0,0,1.23-.189c.594-.462,1.168-.952,1.736-1.445a.845.845,0,0,0,.2-.382.512.512,0,0,1,.875-.257c-.122-.017-.259-.077-.362-.04a.691.691,0,0,0-.388.276.472.472,0,0,0,.087.431.593.593,0,0,0,.46.131c.348-.066.411-.384.192-.809M24.092,9.033a.443.443,0,1,0,.885-.024.411.411,0,0,0-.452-.438.425.425,0,0,0-.433.462m-5.121,1.51a1.329,1.329,0,0,0-.412-.31c-.232-.07-.5.208-.478.457a.43.43,0,0,0,.435.433c.284.009.43-.163.455-.58m-.628,6.36c.453,0,.878-.014,1.3,0,.29.013.363-.108.358-.376-.014-.84-.008-1.68-.009-2.521,0-.259,0-.519,0-.8H18.343Z" transform="translate(-0.001 -0.001)" fill="url(#linear-gradient)"/>
      </g>
    </g>
  </g>
</svg>
