<svg xmlns="http://www.w3.org/2000/svg" xmlns:xlink="http://www.w3.org/1999/xlink" width="38" height="38" viewBox="0 0 38 38">
  <defs>
    <linearGradient id="linear-gradient" x1="0.329" x2="0.881" y2="1" gradientUnits="objectBoundingBox">
      <stop offset="0" stop-color="#00e27a"/>
      <stop offset="1" stop-color="#fff"/>
    </linearGradient>
    <clipPath id="clip-path">
      <rect id="Rectangle_10" data-name="Rectangle 10" width="38" height="26.702" fill="url(#linear-gradient)"/>
    </clipPath>
    <clipPath id="clip-Artboard_17">
      <rect width="38" height="38"/>
    </clipPath>
  </defs>
  <g id="Artboard_17" data-name="Artboard – 17" clip-path="url(#clip-Artboard_17)">
    <rect width="38" height="38" fill="rgba(255,255,255,0)"/>
    <g id="Group_19" data-name="Group 19" transform="translate(0 4.984)">
      <g id="Group_18" data-name="Group 18" clip-path="url(#clip-path)">
        <path id="Path_3620" data-name="Path 3620" d="M0,25.213c.4-.548.815-1.073,1.192-1.621a13.222,13.222,0,0,0,2.2-5.276,3.928,3.928,0,0,0,.062-.434.2.2,0,0,0-.081-.148,1.849,1.849,0,0,1-.631-2.573,1.773,1.773,0,0,1,.787-.687.177.177,0,0,0,.117-.18c.035-.65.046-1.3.125-1.947A5.753,5.753,0,0,1,5.5,8.851c.014-.014.027-.029.055-.06a1.151,1.151,0,0,0-.121-.058c-.863-.293-1.728-.583-2.59-.878-.458-.157-.918-.308-1.366-.488a2.067,2.067,0,0,1-.586-.358.359.359,0,0,1,0-.593,1.628,1.628,0,0,1,.543-.341c1.746-.608,3.5-1.2,5.248-1.8q3.678-1.25,7.357-2.5,2.039-.693,4.077-1.391.515-.176,1.031-.347A.98.98,0,0,1,19.8.07Q23.149,1.239,26.5,2.4c1.219.422,2.441.833,3.66,1.254q2.914,1.007,5.825,2.02c.438.152.883.284,1.313.455a1.94,1.94,0,0,1,.541.349.358.358,0,0,1,0,.59,1.958,1.958,0,0,1-.587.358c-1.018.37-2.043.72-3.067,1.073q-2.736.945-5.472,1.886l-8.186,2.825c-.233.081-.465.166-.7.244a1.011,1.011,0,0,1-.667-.031q-2.758-.95-5.518-1.893Q11.176,10.688,8.7,9.847c-.386-.132-.774-.259-1.158-.4a.257.257,0,0,0-.276.05A5.063,5.063,0,0,0,5.5,12.453a10.524,10.524,0,0,0-.235,2.025.265.265,0,0,0,.106.178,1.825,1.825,0,0,1,.432,2.5,5.071,5.071,0,0,1-.362.4.249.249,0,0,0-.07.15c.046.786.117,1.571.145,2.357a11.386,11.386,0,0,1-.379,3.956A4.267,4.267,0,0,1,2.9,26.639a.529.529,0,0,1-.447.025A8.011,8.011,0,0,1,.275,25.432l-.264-.2A.039.039,0,0,1,0,25.213M7.695,12.618q0,3.87,0,7.739a2.456,2.456,0,0,0,.038.511,2.24,2.24,0,0,0,.728,1.178,7.226,7.226,0,0,0,2.224,1.323,18.67,18.67,0,0,0,4.152,1.114,32,32,0,0,0,4.384.389,32.3,32.3,0,0,0,5.389-.322,20.093,20.093,0,0,0,4.518-1.144,7.177,7.177,0,0,0,2.331-1.377,2.044,2.044,0,0,0,.748-1.515c0-1.545-.008-3.09-.006-4.634,0-1.277.011-2.554.016-3.831a.493.493,0,0,0-.018-.092c-.048.011-.087.017-.124.03l-2.7.927q-1.973.676-3.946,1.353c-1.791.618-3.582,1.235-5.369,1.864a1.46,1.46,0,0,1-1.029,0q-1.464-.527-2.937-1.03-3.117-1.067-6.237-2.124c-.706-.24-1.412-.478-2.154-.73,0,.146,0,.26,0,.374" transform="translate(0 0.001)" fill="url(#linear-gradient)"/>
      </g>
    </g>
  </g>
</svg>
