<svg xmlns="http://www.w3.org/2000/svg" xmlns:xlink="http://www.w3.org/1999/xlink" width="38" height="38" viewBox="0 0 38 38">
  <defs>
    <linearGradient id="linear-gradient" x1="0.109" y1="0.077" x2="0.953" y2="1.027" gradientUnits="objectBoundingBox">
      <stop offset="0" stop-color="#00e27a"/>
      <stop offset="1" stop-color="#fff"/>
    </linearGradient>
    <clipPath id="clip-path">
      <rect id="Rectangle_8" data-name="Rectangle 8" width="37" height="36.937" fill="url(#linear-gradient)"/>
    </clipPath>
    <clipPath id="clip-internet">
      <rect width="38" height="38"/>
    </clipPath>
  </defs>
  <g id="internet" clip-path="url(#clip-internet)">
    <rect width="38" height="38" fill="rgba(255,255,255,0)"/>
    <g id="Group_15" data-name="Group 15" transform="translate(1 1)">
      <g id="Group_14" data-name="Group 14" clip-path="url(#clip-path)">
        <path id="Path_3618" data-name="Path 3618" d="M17.956,36.937a3.323,3.323,0,0,1-1.5-1.018,2.462,2.462,0,0,1,.4-3.464c.273-.2.6-.308.887-.492a.472.472,0,0,0,.172-.339c.017-.641.009-1.283.01-1.925,0-.261.051-.473.365-.54a.784.784,0,0,1,.8.244c.037.039.011.139.011.21,0,.745,0,1.49,0,2.224a2.69,2.69,0,0,1,1.935,2.955,2.638,2.638,0,0,1-1.9,2.065.545.545,0,0,0-.141.079Zm.454-1.183a1.374,1.374,0,1,0,.009-2.745,1.374,1.374,0,0,0-.009,2.745m18.517-16.83c-.023.03-.063.059-.066.092a2.1,2.1,0,0,1-1.21,1.673,2.275,2.275,0,0,1-2.5-.056,2.817,2.817,0,0,1-1.232-1.605h-2.2a.522.522,0,0,1-.579-.537c-.032-.4.168-.625.6-.632.733-.011,1.467,0,2.194,0a2.561,2.561,0,0,1,4.929-.175.509.509,0,0,0,.083.13l.066.236v.472l-.074.405m-1.421.3.155-.163a3,3,0,0,0,.058-1.028,1.351,1.351,0,0,0-1.855-.852,1.412,1.412,0,0,0-.736,1.762,1.336,1.336,0,0,0,2.378.281m1.5-.315v-.394l-.074.405L37,18.912m0-1.1h-.066l.066.236Zm0,.551v0ZM23.386,10.4A17.1,17.1,0,0,1,25,11.622a5.6,5.6,0,0,1,1.47,1.938l.221.315.338.786.134.159c.21.66.446,1.313.624,1.982a8.2,8.2,0,0,1,.089,2.129,8.633,8.633,0,0,1-1.819,5.133,9.374,9.374,0,0,1-4.916,3.445,9.266,9.266,0,0,1-3.888.305,8.945,8.945,0,0,1-2.532-.734A10.242,10.242,0,0,1,12.6,25.823l-.091-.065a9.62,9.62,0,0,1-3.266-5.239,8.114,8.114,0,0,1-.1-3.274,11.366,11.366,0,0,1,.482-2.065,9.3,9.3,0,0,1,4.348-5.047A8.463,8.463,0,0,1,17.2,9.087a10.728,10.728,0,0,1,3.1.127,8.823,8.823,0,0,1,2.784,1.038l.139.083h0l.16.062m-.558,3.166c.044.3.08.629.14.952.132.706.284,1.409.41,2.116.017.1-.114.225-.092.319.067.291.175.573.272.874h3.193c-.025-.109-.046-.182-.059-.256a7.4,7.4,0,0,0-.823-2.82c-.4-.637-.787-1.276-1.2-1.9-.157-.238-.38-.233-.616-.075-.388.26-.784.508-1.227.793M12.722,12.64c-1.122.611-2.628,3.643-2.4,5.192H13.4l.655-4.291-1.336-.9m1.345,10.715-.669-4.3H10.262a7.886,7.886,0,0,0,2.379,5.214l1.425-.919M23.5,19.061c-.041.424-.058.825-.123,1.218-.153.929-.312,1.857-.507,2.778-.047.223-.012.315.165.421a9.3,9.3,0,0,1,1.051.683.237.237,0,0,0,.385-.031,16.005,16.005,0,0,0,.987-1.281,8.344,8.344,0,0,0,1.271-3.786Zm-8.826-1.239H17.9V14.675L15.208,14.1a13.049,13.049,0,0,0-.53,3.72m.484,4.95c.9-.144,1.692-.26,2.477-.41a.443.443,0,0,0,.264-.323c.03-.483.013-.97.013-1.455V19.064H14.777c-.088.248-.162.448-.228.65a.258.258,0,0,0,.019.126c.08.317.178.631.239.951.131.681.245,1.366.354,1.982M21.8,14.088l-2.682.561v3.167h3.3L21.8,14.088m-2.7,4.965c0,1.037-.007,2.043.011,3.049a.38.38,0,0,0,.247.263c.78.148,1.566.271,2.439.417l.6-3.729Zm-1.182-8.771a4.625,4.625,0,0,0-2.269,2.644,4.807,4.807,0,0,0,2.047.465c.074,0,.211-.154.212-.239.015-.928.01-1.857.01-2.87M17.9,26.6V23.591A3.329,3.329,0,0,0,15.67,24,4.624,4.624,0,0,0,17.9,26.6m3.432-13.6a4.723,4.723,0,0,0-2.219-2.695v3.16l2.219-.465M19.116,26.6a4.99,4.99,0,0,0,2.193-2.673l-2.193-.444Zm-3.647-.482-.909-1.667-1.067.657a9.434,9.434,0,0,0,1.976,1.01M13.48,11.785a9.358,9.358,0,0,0,.831.515.371.371,0,0,0,.35-.062c.273-.457.514-.933.766-1.4l-.046-.091-1.9,1.04m8.087-1.033-.048.077c.23.4.468.8.687,1.209.191.356.412.424.725.179.16-.125.3-.279.479-.453l-1.843-1.011m-.041,15.291.052.092,1.857-1.043-1.022-.621-.887,1.572m6.025,2.32c-.5-.492-1.008-.985-1.506-1.486a.629.629,0,0,1-.005-.974.818.818,0,0,1,.888.14c.431.422.866.84,1.273,1.283a.362.362,0,0,0,.5.078c.247-.116.521-.31.762-.282a3.436,3.436,0,0,1,2.078.745,2.253,2.253,0,0,1,.746,1.312,2.589,2.589,0,0,1-.541,2.118,2.642,2.642,0,0,1-2.47.982A2.313,2.313,0,0,1,27.5,30.95a4.33,4.33,0,0,1-.377-1.606c-.014-.311.266-.635.427-.982M31.1,29.749a1.324,1.324,0,0,0-1.414-1.4,1.374,1.374,0,0,0-1.331,1.4,1.441,1.441,0,0,0,1.373,1.36A1.4,1.4,0,0,0,31.1,29.749M27.507,8.558a4.451,4.451,0,0,1-.354-1.223,2.7,2.7,0,0,1,.965-2.165,2.764,2.764,0,0,1,3.278.049,2.591,2.591,0,0,1,.4,3.5,2.69,2.69,0,0,1-3.418.651c-.481.487-.968.98-1.457,1.471-.341.342-.632.379-.9.119a.622.622,0,0,1,.037-.976c.489-.493.986-.976,1.446-1.43M31.1,7.147a1.248,1.248,0,0,0-1.181-1.3c-.976-.006-1.611.5-1.566,1.311a1.4,1.4,0,0,0,1.281,1.375A1.321,1.321,0,0,0,31.1,7.147M17.916,5.033A2.69,2.69,0,0,1,15.911,2.42,2.588,2.588,0,0,1,18.346,0,2.462,2.462,0,0,1,20.84,1.539a2.422,2.422,0,0,1,0,1.941A2.382,2.382,0,0,1,19.377,4.89a.392.392,0,0,0-.285.458c.017.6.015,1.205,0,1.807a.624.624,0,0,1-.654.658c-.349-.028-.512-.221-.519-.675-.011-.694,0-1.388,0-2.106m-.827-2.55a1.409,1.409,0,0,0,1.562,1.395,1.436,1.436,0,0,0,1.185-1.365,1.327,1.327,0,0,0-1.416-1.374A1.353,1.353,0,0,0,17.09,2.483M6.544,27.243a2.833,2.833,0,0,1,1.758.163.437.437,0,0,0,.383-.061c.432-.4.835-.831,1.26-1.239a.9.9,0,0,1,.411-.256c.267-.048.588-.066.715.244a.681.681,0,0,1-.173.781c-.507.492-1.005.993-1.511,1.5a2.462,2.462,0,0,1-.109,2.839A2.431,2.431,0,0,1,6.83,32.277a2.6,2.6,0,0,1-.443-5.009l.157-.025m.687,1.115a1.3,1.3,0,0,0-1.39,1.348A1.33,1.33,0,0,0,7.182,31.1a1.37,1.37,0,1,0,.05-2.739M9.378,8.5c.514.508,1.034,1.007,1.536,1.523a.6.6,0,0,1-.153,1.022.406.406,0,0,1-.55-.075c-.466-.479-.953-.938-1.416-1.421a.35.35,0,0,0-.469-.089A2.5,2.5,0,0,1,4.769,7.939,2.531,2.531,0,0,1,7.1,4.642,2.64,2.64,0,0,1,9.654,6.4,2.555,2.555,0,0,1,9.378,8.5M7.19,5.846c-.784-.134-1.34.649-1.353,1.3a1.364,1.364,0,0,0,1.28,1.389A1.478,1.478,0,0,0,8.6,7.219,1.331,1.331,0,0,0,7.19,5.846M6.24,19.035a2.074,2.074,0,0,1-.314,0,.958.958,0,0,0-1.195.677,2.5,2.5,0,0,1-2.459,1.32A2.59,2.59,0,0,1,.1,19.128a2.416,2.416,0,0,1,.817-2.636A2.532,2.532,0,0,1,4.934,17.6a.331.331,0,0,0,.389.255c.6,0,1.206,0,1.808,0,.462,0,.668.192.672.6,0,.393-.187.564-.66.576-.3.007-.6,0-.9,0m-5.046-.6a1.319,1.319,0,0,0,1.388,1.4,1.361,1.361,0,0,0,1.28-1.46A1.216,1.216,0,0,0,2.543,17.1a1.246,1.246,0,0,0-1.349,1.33m5.278,8.7-.085.138.157-.025-.072-.113M23.386,10.4l-.16-.062.16.062m-.159-.061-.139-.083.139.083M35.66,19.064c-.03.075-.325-.1-.155.163l.155-.163" transform="translate(0 0)" fill="url(#linear-gradient)"/>
      </g>
    </g>
  </g>
</svg>
