<svg xmlns="http://www.w3.org/2000/svg" xmlns:xlink="http://www.w3.org/1999/xlink" width="38" height="38" viewBox="0 0 38 38">
  <defs>
    <linearGradient id="linear-gradient" x1="0.262" y1="0.02" x2="0.818" y2="1" gradientUnits="objectBoundingBox">
      <stop offset="0" stop-color="#fff"/>
      <stop offset="1" stop-color="#00e27a"/>
    </linearGradient>
    <clipPath id="clip-path">
      <rect id="Rectangle_5" data-name="Rectangle 5" width="35.648" height="37.543" fill="url(#linear-gradient)"/>
    </clipPath>
    <clipPath id="clip-Internet_prosperity">
      <rect width="38" height="38"/>
    </clipPath>
  </defs>
  <g id="Internet_prosperity" data-name="Internet prosperity" clip-path="url(#clip-Internet_prosperity)">
    <rect width="38" height="38" fill="rgba(255,255,255,0)"/>
    <g id="Group_9" data-name="Group 9" transform="translate(1)">
      <g id="Group_8" data-name="Group 8" clip-path="url(#clip-path)">
        <path id="Path_3610" data-name="Path 3610" d="M27.154,27.618a14.826,14.826,0,0,0,2.85-2.1c.712-.6,1.441-1.184,2.169-1.766a2.1,2.1,0,0,1,1.1-.483,1.041,1.041,0,0,1,.828.225.476.476,0,0,0,.3.077,1.151,1.151,0,0,1,.89.2,1.12,1.12,0,0,1,.2,1.384c-.6.867-1.212,1.721-1.82,2.581q-.656.928-1.311,1.856a5.371,5.371,0,0,1-1.93,1.63c-1.336.712-2.675,1.416-4.012,2.125-.97.514-1.933,1.041-2.908,1.545a4.507,4.507,0,0,1-2.092.454,10.783,10.783,0,0,1-3.049-.5c-1.859-.54-3.722-1.072-5.6-1.546a5.388,5.388,0,0,0-3.669.451c-.418.2-.84.382-1.259.576-.2.093-.317.076-.421-.164-.823-1.9-1.663-3.786-2.5-5.677-.082-.186-.184-.363-.265-.549-.074-.17-.061-.283.167-.34a1.672,1.672,0,0,0,.566-.277q.77-.564,1.515-1.163a9.062,9.062,0,0,1,3.472-1.772,8.988,8.988,0,0,1,5.386.371c.979.354,1.912.838,2.9,1.178,1.07.37,2.169.664,3.267.944.713.182,1.448.28,2.172.42.6.115,1.2.212,1.788.364a2.269,2.269,0,0,1,.753.393A.952.952,0,0,1,26.8,29.5a2.461,2.461,0,0,1-2.382.806c-1.633-.251-3.25-.619-4.888-.828a6.347,6.347,0,0,0-3.383.327.412.412,0,0,0-.253.555.248.248,0,0,0,.186.118.911.911,0,0,0,.351-.066,5.426,5.426,0,0,1,3.023-.265c1.293.219,2.581.468,3.877.665a4.863,4.863,0,0,0,2.68-.032,2.666,2.666,0,0,0,1.524-1.21,1.6,1.6,0,0,0-.279-1.825c-.031-.033-.058-.069-.105-.125M32.179,4.261c.5.489.938.922,1.38,1.352.1.1.213.189.32.283.035-.143.07-.285.1-.428.007-.027.011-.054.015-.082q.445-2.522.889-5.044A3.062,3.062,0,0,0,34.908,0a42.554,42.554,0,0,0-5.9,1.212l1.64,1.511c-.156.149-.284.266-.406.39-1.081,1.1-2.155,2.207-3.242,3.3-1.165,1.173-2.342,2.335-3.512,3.5-.291.291-.294.3-.585.008Q20.982,8,19.068,6.076c-.251-.252-.511-.495-.684-.662l-6.738,6.639,1.573,1.621a3.378,3.378,0,0,1,.264-.361c.565-.6,1.13-1.195,1.709-1.778.99-1,1.993-1.979,2.985-2.973.1-.1.169-.115.27-.013,1.1,1.12,2.2,2.244,3.307,3.353.47.469.97.907,1.462,1.364l8.965-9.005m-.084,2.16c-1.022,1.017-2.035,2.042-3.07,3.044a.925.925,0,0,0-.3.732q.009,5.255,0,10.51c0,.229.075.288.281.287.988-.007,1.977-.006,2.966-.009.088,0,.177-.013.249-.019V6.313c-.075.061-.105.082-.131.107M7.317,35.581c-.018-.052-.032-.106-.054-.157-.162-.382-.321-.765-.488-1.145Q5.285,30.9,3.793,27.517c-.216-.492-.209-.5-.73-.333l-.132.041L.24,28.071c-.2.063-.317.129-.182.391.288.556.539,1.133.79,1.707.7,1.6,1.388,3.2,2.082,4.8.342.787.692,1.571,1.031,2.36.09.209.155.295.392.125.359-.257.757-.459,1.139-.683.557-.328,1.112-.657,1.671-.982a1.811,1.811,0,0,1,.254-.1l-.1-.1m10.059-24.2c-.973.973-1.934,1.958-2.925,2.913a1,1,0,0,0-.331.832c.027,1.5.012,2.993.017,4.489a8.525,8.525,0,0,1,.014,1.05c-.036.293.075.327.309.326.9,0,1.81,0,2.715,0,.421,0,.468.059.406-.433a1.739,1.739,0,0,1,0-.221q.012-4.3.023-8.591c0-.163-.016-.326-.027-.537-.091.079-.147.121-.2.17m5.106,9.267c-.008-1.1-.022-2.2-.023-3.3,0-.8.006-1.606.034-2.408a.489.489,0,0,0-.135-.417Q20.827,13,19.3,11.469c-.078-.078-.17-.142-.291-.241V19.3q0,.72,0,1.441c0,.144.024.249.211.248,1.069,0,2.138,0,3.259,0,0-.12,0-.228,0-.337m4.742-9.365c-1.056,1.06-2.116,2.116-3.161,3.187a.734.734,0,0,0-.169.469c-.01,1.949,0,3.9-.007,5.848,0,.163.053.213.2.213,1.052,0,2.1,0,3.157,0a.292.292,0,0,0,.092-.031V11.2a1.158,1.158,0,0,0-.114.08" transform="translate(0)" fill="url(#linear-gradient)"/>
      </g>
    </g>
  </g>
</svg>
