<svg xmlns="http://www.w3.org/2000/svg" xmlns:xlink="http://www.w3.org/1999/xlink" width="38" height="38" viewBox="0 0 38 38">
  <defs>
    <linearGradient id="linear-gradient" x1="0.149" y1="0.066" x2="0.934" y2="0.971" gradientUnits="objectBoundingBox">
      <stop offset="0" stop-color="#00e27a"/>
      <stop offset="1" stop-color="#fff"/>
    </linearGradient>
    <clipPath id="clip-path">
      <rect id="Rectangle_7" data-name="Rectangle 7" width="37.465" height="38" fill="url(#linear-gradient)"/>
    </clipPath>
    <clipPath id="clip-Industrial_prosperity">
      <rect width="38" height="38"/>
    </clipPath>
  </defs>
  <g id="Industrial_prosperity" data-name="Industrial prosperity" clip-path="url(#clip-Industrial_prosperity)">
    <rect width="38" height="38" fill="rgba(255,255,255,0)"/>
    <g id="Group_13" data-name="Group 13">
      <g id="Group_12" data-name="Group 12" clip-path="url(#clip-path)">
        <path id="Path_3617" data-name="Path 3617" d="M29.147,26.291a7.789,7.789,0,0,0,.83-.138,4.291,4.291,0,0,0,2.431-1.779c.531-.768,1.042-1.552,1.544-2.339a4.87,4.87,0,0,0,.809-2,6.909,6.909,0,0,0,.028-.777,9.177,9.177,0,0,1,.2-2.127,7.247,7.247,0,0,1,.276-.87,1.617,1.617,0,0,1,.273-.445.878.878,0,0,1,1.377-.017,2.239,2.239,0,0,1,.481,1.252,11.609,11.609,0,0,1-.058,2.933c-.084.767-.189,1.532-.3,2.3a4.869,4.869,0,0,1-.751,1.886c-.7,1.1-1.429,2.182-2.143,3.273a5.2,5.2,0,0,0-.376.636,3.259,3.259,0,0,1-1.086,1.225,26.307,26.307,0,0,1-4.228,2.543,4.47,4.47,0,0,0-2.712,4.277c0,.428-.015.856-.034,1.284a1.35,1.35,0,0,1-.079.339.347.347,0,0,1-.365.261q-2.3,0-4.6-.007c-.255,0-.353-.093-.4-.4-.07-.429-.131-.859-.189-1.29a20.484,20.484,0,0,1-.2-3.184,14.43,14.43,0,0,1,.7-4.09,4.906,4.906,0,0,1,1.233-1.914,12.93,12.93,0,0,1,2.96-2.131A17.268,17.268,0,0,0,26.738,23.8c.734-.561,1.382-1.236,2.068-1.86.5-.455.994-.914,1.5-1.363a1.415,1.415,0,0,1,1.046-.347,1.074,1.074,0,0,1,1.091,1.094,2.488,2.488,0,0,1-1.072,2.252,7.946,7.946,0,0,0-2.251,2.641ZM7.863,26.231a4,4,0,0,1-2.678-1.69c-.652-.9-1.255-1.846-1.843-2.793a4.345,4.345,0,0,1-.68-2.458,11.578,11.578,0,0,0-.114-1.784,3.78,3.78,0,0,0-.5-1.544.926.926,0,0,0-1.658.051,2.632,2.632,0,0,0-.237.614,7.7,7.7,0,0,0-.1,2.518c.062.762.158,1.523.259,2.281a6.719,6.719,0,0,0,.361,1.706A14.281,14.281,0,0,0,2,25.464c.636.979,1.264,1.963,1.9,2.941a1.762,1.762,0,0,0,.36.429c.525.413,1.049.829,1.6,1.2a22,22,0,0,0,3.21,1.824,4.49,4.49,0,0,1,1.869,1.574,4.647,4.647,0,0,1,.794,2.777,10.3,10.3,0,0,0,.07,1.377c.04.339.163.408.5.408l4.4,0c.355,0,.452-.073.5-.423.1-.693.2-1.387.279-2.083a14.679,14.679,0,0,0-.131-4.633,13.622,13.622,0,0,0-.573-2.116,5.6,5.6,0,0,0-1.842-2.3,15.827,15.827,0,0,0-2.656-1.691,10.962,10.962,0,0,1-2.7-1.922c-.768-.764-1.578-1.486-2.374-2.221a1.5,1.5,0,0,0-.995-.386,1.051,1.051,0,0,0-1.159.92A2.353,2.353,0,0,0,6.05,23.53a8.433,8.433,0,0,1,2.234,2.563,2.065,2.065,0,0,1,.082.19c-.2-.02-.353-.028-.5-.052m11.125-2.174a7.541,7.541,0,1,0-7.79-7.52,7.551,7.551,0,0,0,7.79,7.52m-.476-8.465c.517.168,1.042.314,1.56.479a2.85,2.85,0,0,1,1.687,1.265,2.556,2.556,0,0,1,.318,1.367,2.728,2.728,0,0,1-2.142,2.752,3.709,3.709,0,0,1-.493.106.142.142,0,0,0-.146.163c0,.084,0,.169-.01.253a.557.557,0,0,1-1.108-.005c-.034-.377-.031-.392-.4-.466a3.025,3.025,0,0,1-2.11-1.488A1.541,1.541,0,0,1,15.4,19a.815.815,0,0,1,.691-.716.789.789,0,0,1,.939.44c.13.261.237.535.384.785a1.681,1.681,0,0,0,2.722.088,1.2,1.2,0,0,0-.419-1.772,8.137,8.137,0,0,0-1.124-.422,6.406,6.406,0,0,1-1.969-.946,2.546,2.546,0,0,1-.972-2.2,2.865,2.865,0,0,1,2.235-2.727c.28-.073.281-.07.28-.357a.56.56,0,1,1,1.119-.028c.011.324.013.318.324.408A3.137,3.137,0,0,1,21.7,13.286a1.14,1.14,0,0,1,.08.993.9.9,0,0,1-.865.513.772.772,0,0,1-.748-.571c-.058-.179-.1-.364-.161-.541a1.286,1.286,0,0,0-1.456-.868,1.385,1.385,0,0,0-1.142,1.357,1.527,1.527,0,0,0,1.105,1.423M19.35,3.348c0-.9.008-1.805-.007-2.708A.8.8,0,0,0,19.178.2a.578.578,0,0,0-.692-.148.616.616,0,0,0-.37.628q0,2.66,0,5.319a.608.608,0,0,0,.62.651A.647.647,0,0,0,19.36,6c-.021-.883-.007-1.766-.007-2.65h0m4.408,3.626a.587.587,0,0,0,.665-.41c.116-.391.216-.786.321-1.18q.5-1.885,1.007-3.771a.6.6,0,0,0-.321-.7.583.583,0,0,0-.712.121,1.258,1.258,0,0,0-.209.451q-.6,2.21-1.193,4.423c-.04.15-.073.3-.1.4a.614.614,0,0,0,.538.67m-9.562-.9q-.559-2.084-1.121-4.166a7.3,7.3,0,0,0-.212-.706.6.6,0,0,0-.727-.328.618.618,0,0,0-.392.845c.324,1.233.655,2.465.984,3.7.1.369.189.74.295,1.107a.627.627,0,0,0,.664.459.648.648,0,0,0,.558-.656c-.009-.049-.022-.152-.049-.252M29.68,7.713q.513-.894,1.026-1.789c.314-.545.631-1.088.944-1.633a.6.6,0,0,0-.19-.867.6.6,0,0,0-.833.187,3,3,0,0,0-.167.262q-.507.875-1.011,1.752c-.289.5-.588.993-.866,1.5a.606.606,0,0,0,.53.96.586.586,0,0,0,.567-.371M8.938,7.243a2.97,2.97,0,0,0-.171-.327q-.913-1.585-1.83-3.167a1.127,1.127,0,0,0-.214-.274A.58.58,0,0,0,6.05,3.4a.526.526,0,0,0-.323.532,1.125,1.125,0,0,0,.144.454c.644,1.133,1.3,2.26,1.947,3.389a.551.551,0,0,0,.506.315.6.6,0,0,0,.613-.843M3.522,9.359c-.407-.428-.83-.841-1.25-1.256-.244-.242-.482-.493-.747-.711a.547.547,0,0,0-.8.094.621.621,0,0,0,.088.9Q1.5,9.07,2.185,9.746c.185.182.365.37.566.533a.532.532,0,0,0,.623.02.713.713,0,0,0,.359-.544,1.656,1.656,0,0,0-.211-.4m31.3.838c.193-.162.364-.35.543-.529.44-.44.884-.876,1.319-1.322a.586.586,0,0,0,.023-.881.534.534,0,0,0-.8-.052c-.288.25-.554.526-.825.8-.39.389-.778.781-1.16,1.177a.535.535,0,0,0-.084.648.659.659,0,0,0,.638.353,1.722,1.722,0,0,0,.341-.191" transform="translate(0.001 0)" fill="url(#linear-gradient)"/>
      </g>
    </g>
  </g>
</svg>
