<svg xmlns="http://www.w3.org/2000/svg" xmlns:xlink="http://www.w3.org/1999/xlink" width="38" height="38" viewBox="0 0 38 38">
  <defs>
    <linearGradient id="linear-gradient" x1="0.858" y1="0.156" x2="0.242" y2="1.528" gradientUnits="objectBoundingBox">
      <stop offset="0" stop-color="#00e27a"/>
      <stop offset="1" stop-color="#fff"/>
    </linearGradient>
    <clipPath id="clip-path">
      <rect id="Rectangle_4" data-name="Rectangle 4" width="37.976" height="38" fill="url(#linear-gradient)"/>
    </clipPath>
    <clipPath id="clip-Internet_backup">
      <rect width="38" height="38"/>
    </clipPath>
  </defs>
  <g id="Internet_backup" data-name="Internet backup" clip-path="url(#clip-Internet_backup)">
    <rect width="38" height="38" fill="rgba(255,255,255,0)"/>
    <g id="Group_7" data-name="Group 7" transform="translate(0.012)">
      <g id="Group_6" data-name="Group 6" clip-path="url(#clip-path)">
        <path id="Path_3604" data-name="Path 3604" d="M16.223,0a34.7,34.7,0,0,1,7.561.915,16.324,16.324,0,0,1,6.371,2.792,5.016,5.016,0,0,1,1.912,2.582,3.581,3.581,0,0,1-.906,3.4,8.367,8.367,0,0,1-2.378,1.87.829.829,0,0,1-.463.085,2.61,2.61,0,0,0-2.1.616,6.861,6.861,0,0,1-3.558,1.426,32.714,32.714,0,0,1-7.925.582,26.835,26.835,0,0,1-10.1-2.162A9.573,9.573,0,0,1,.976,9.424,3.535,3.535,0,0,1,.955,4.961a10.123,10.123,0,0,1,4.3-2.984A24.014,24.014,0,0,1,12.217.3C13.55.177,14.888.1,16.223,0" transform="translate(-0.145)" fill="url(#linear-gradient)"/>
        <path id="Path_3605" data-name="Path 3605" d="M114.939,102.595l2.648.5a7.517,7.517,0,1,0,6.5-3.748v3.014l-5.92-4.434,5.908-4.429v3.2a10.157,10.157,0,0,1,9.841,7.859,10.082,10.082,0,1,1-18.975-1.967" transform="translate(-96.192 -78.899)" fill="url(#linear-gradient)"/>
        <path id="Path_3606" data-name="Path 3606" d="M.044,62.863a6.121,6.121,0,0,0,2.87,3.392,18.986,18.986,0,0,0,6.573,2.431,33.017,33.017,0,0,0,8.714.548c.983-.067,1.964-.17,2.962-.258-.309.235-.619.463-.922.7a2.912,2.912,0,0,0-.7,4.038c.026.041.044.088.076.154a3.125,3.125,0,0,0-2.973.767.837.837,0,0,1-.529.119A30.735,30.735,0,0,1,6.073,73.193,12.4,12.4,0,0,1,1.508,70.6,4.18,4.18,0,0,1,.039,67.432c.022-1.523.005-3.046.005-4.569" transform="translate(-0.032 -53.046)" fill="url(#linear-gradient)"/>
        <path id="Path_3607" data-name="Path 3607" d="M18,169.329a39.239,39.239,0,0,1-6.114-.191,27,27,0,0,1-6.016-1.374,12.328,12.328,0,0,1-4.28-2.429A4.352,4.352,0,0,1,0,161.8c.063-1.425.014-2.855.014-4.344a11.169,11.169,0,0,0,.465,1.074,7.254,7.254,0,0,0,2.964,2.692A19.574,19.574,0,0,0,9.993,163.4c1.716.27,3.451.424,5.243.638A13.094,13.094,0,0,0,18,169.329" transform="translate(0 -132.869)" fill="url(#linear-gradient)"/>
        <path id="Path_3608" data-name="Path 3608" d="M.056,110.555a6.733,6.733,0,0,0,3.574,3.765,20.386,20.386,0,0,0,7.006,2.2c1.547.217,3.115.291,4.673.43l.281.026a13.15,13.15,0,0,0-.637,5.337c-.5,0-.969.032-1.436-.005a27.908,27.908,0,0,1-7.94-1.655,11.339,11.339,0,0,1-4.258-2.6,4.16,4.16,0,0,1-1.273-3.1c.041-1.464.01-2.931.01-4.4" transform="translate(-0.038 -93.291)" fill="url(#linear-gradient)"/>
        <path id="Path_3609" data-name="Path 3609" d="M192.442,66.234a5.612,5.612,0,0,0,1.96-2.666c0,1.855.111,3.706-.031,5.606-.386-.115-.675-.186-.951-.293a.321.321,0,0,1-.146-.25,3.323,3.323,0,0,0-.832-2.4" transform="translate(-162.39 -53.641)" fill="url(#linear-gradient)"/>
      </g>
    </g>
  </g>
</svg>
