<svg xmlns="http://www.w3.org/2000/svg" xmlns:xlink="http://www.w3.org/1999/xlink" width="38" height="38" viewBox="0 0 38 38">
  <defs>
    <linearGradient id="linear-gradient" x1="0.5" y1="0.062" x2="-1.757" y2="0.648" gradientUnits="objectBoundingBox">
      <stop offset="0" stop-color="#00e27a"/>
      <stop offset="1" stop-color="#fff"/>
    </linearGradient>
    <clipPath id="clip-path">
      <rect id="Rectangle_6" data-name="Rectangle 6" width="37.16" height="37.319" fill="url(#linear-gradient)"/>
    </clipPath>
    <clipPath id="clip-Internet_access">
      <rect width="38" height="38"/>
    </clipPath>
  </defs>
  <g id="Internet_access" data-name="Internet access" clip-path="url(#clip-Internet_access)">
    <rect width="38" height="38" fill="rgba(255,255,255,0)"/>
    <g id="Group_11" data-name="Group 11" transform="translate(0 0)">
      <g id="Group_10" data-name="Group 10" clip-path="url(#clip-path)">
        <path id="Path_3611" data-name="Path 3611" d="M175.8,0a3.016,3.016,0,0,1,1.274,1.051A23,23,0,0,1,180.5,6.021a14.882,14.882,0,0,1,1.584,5.2,18.7,18.7,0,0,1,.028,3.27,16.6,16.6,0,0,1-3.072,8.07c-.621.911-1.332,1.762-2.013,2.631a1.42,1.42,0,0,1-1.62.46,1.5,1.5,0,0,1-.956-1.481,1.354,1.354,0,0,1,.348-.823,25.078,25.078,0,0,0,2.143-2.844,14.923,14.923,0,0,0,2.148-5.21,12.191,12.191,0,0,0-.815-7.154,18.567,18.567,0,0,0-3.517-5.308,2.671,2.671,0,0,1-.7-1.012,1.444,1.444,0,0,1,.723-1.659A2.166,2.166,0,0,0,175.014,0Z" transform="translate(-145.007 -0.001)" fill="url(#linear-gradient)"/>
        <path id="Path_3612" data-name="Path 3612" d="M223.638,75.83v0Z" transform="translate(-186.373 -62.227)" fill="url(#linear-gradient)"/>
        <path id="Path_3613" data-name="Path 3613" d="M92.973,73.129c0-3.158-.008-6.317.011-9.476a.721.721,0,0,0-.416-.734,3.329,3.329,0,0,1-1.683-3.094,3.459,3.459,0,1,1,6.912.3,3.374,3.374,0,0,1-1.921,2.935.271.271,0,0,0-.178.268q.009,2.3.009,4.6,0,7.371,0,14.742a3.337,3.337,0,0,1-.049.619,1.333,1.333,0,0,1-2.636-.051,4.982,4.982,0,0,1-.047-.743q0-4.686,0-9.372Z" transform="translate(-75.74 -47.083)" fill="url(#linear-gradient)"/>
        <path id="Path_3614" data-name="Path 3614" d="M6.62.685a1.321,1.321,0,0,1,1.3.7,1.344,1.344,0,0,1-.035,1.472,3.915,3.915,0,0,1-.44.548A18.919,18.919,0,0,0,4.148,8.23a12.285,12.285,0,0,0-.3,10.085,19.114,19.114,0,0,0,3.362,5.337,1.887,1.887,0,0,1,.543.98,1.468,1.468,0,0,1-.793,1.512,1.387,1.387,0,0,1-1.613-.23,9.9,9.9,0,0,1-.765-.871,20.047,20.047,0,0,1-4.08-7.6,15.063,15.063,0,0,1-.478-3.1A15.983,15.983,0,0,1,2.679,4.845a23.8,23.8,0,0,1,2.888-3.7A1.259,1.259,0,0,1,6.62.685" transform="translate(0 -0.566)" fill="url(#linear-gradient)"/>
        <path id="Path_3615" data-name="Path 3615" d="M46.039,36.787A11.17,11.17,0,0,1,48,30.606c.281-.426.585-.839.9-1.236a1.452,1.452,0,0,1,2.6.557,1.479,1.479,0,0,1-.336,1.274c-.309.415-.622.829-.9,1.264A8.152,8.152,0,0,0,49,36.059a7.947,7.947,0,0,0,1.134,4.873c.294.513.66.985,1,1.472a1.8,1.8,0,0,1,.405.912,1.463,1.463,0,0,1-.831,1.429,1.3,1.3,0,0,1-1.628-.294,17.442,17.442,0,0,1-1.413-1.987,10.421,10.421,0,0,1-1.412-3.623c-.122-.677-.181-1.365-.269-2.048l.053-.007" transform="translate(-38.323 -23.968)" fill="url(#linear-gradient)"/>
        <path id="Path_3616" data-name="Path 3616" d="M149.438,36.753a11.491,11.491,0,0,1-1.791,6.291c-.319.516-.677,1.009-1.04,1.5a1.45,1.45,0,0,1-2.575-1.292,3.194,3.194,0,0,1,.41-.667,9.923,9.923,0,0,0,1.865-3.709,7.742,7.742,0,0,0-1.016-5.963c-.256-.425-.563-.818-.846-1.227-.106-.153-.216-.3-.309-.465a1.429,1.429,0,0,1,.632-1.939,1.481,1.481,0,0,1,1.821.406,12.9,12.9,0,0,1,2.436,4.552,9.878,9.878,0,0,1,.413,2.517" transform="translate(-119.95 -24.272)" fill="url(#linear-gradient)"/>
      </g>
    </g>
  </g>
</svg>
